<svg xmlns="http://www.w3.org/2000/svg" viewBox="0 0 112.07 42.38"><defs><style>.cls-1{fill:#0da4db;fill-rule:evenodd;}.cls-2{font-size:17.67px;}.cls-2,.cls-3{fill:#061747;font-family:Lato-Black, Lato;font-weight:800;}.cls-3{font-size:4.35px;}</style></defs><title>Asset 1</title><g id="Layer_2" data-name="Layer 2"><g id="Layer_1-2" data-name="Layer 1"><path class="cls-1" d="M486.16,631h37.95v30.18h-3.8V661A15.18,15.18,0,1,0,490,661v.21h-3.79Z" transform="translate(-486.16 -630.98)"/><polygon class="cls-1" points="0 37.99 0 34.08 37.95 34.08 37.95 37.99 5.79 37.99 0 42.38 0 37.99"/><path class="cls-1" d="M503.93,650.8A10.41,10.41,0,0,1,512.39,661v.13h3.9V661a10.43,10.43,0,0,0-12.36-10.23" transform="translate(-486.16 -630.98)"/><text class="cls-2" transform="translate(47.46 16.99)">CL</text><text class="cls-2" transform="translate(67.53 16.99)">OU</text><text class="cls-2" transform="translate(93.8 16.99)">D</text><text class="cls-2" transform="translate(47.46 33.88)">F</text><text class="cls-2" transform="translate(56.95 33.88)">O</text><text class="cls-2" transform="translate(71.44 33.88)">O</text><text class="cls-2" transform="translate(85.4 33.88)">D</text><text class="cls-3" transform="translate(99.75 27.28)"><tspan xml:space="preserve">ESTD  </tspan></text><text class="cls-3" transform="translate(99.86 31.32)">2021</text></g></g></svg>