<svg xmlns="http://www.w3.org/2000/svg" viewBox="0 0 112.07 42.38"><defs><style>.cls-1{font-size:17.67px;}.cls-1,.cls-2,.cls-3{fill:#fefefe;}.cls-1,.cls-2{font-family:Lato-Black, Lato;font-weight:800;}.cls-2{font-size:4.35px;}.cls-3{fill-rule:evenodd;}</style></defs><title>Asset 2</title><g id="Layer_2" data-name="Layer 2"><g id="Layer_1-2" data-name="Layer 1"><text class="cls-1" transform="translate(47.46 16.99)">CL</text><text class="cls-1" transform="translate(67.53 16.99)">OU</text><text class="cls-1" transform="translate(93.8 16.99)">D</text><text class="cls-1" transform="translate(47.46 33.88)">F</text><text class="cls-1" transform="translate(56.95 33.88)">O</text><text class="cls-1" transform="translate(71.44 33.88)">O</text><text class="cls-1" transform="translate(85.4 33.88)">D</text><text class="cls-2" transform="translate(99.75 27.28)"><tspan xml:space="preserve">ESTD  </tspan></text><text class="cls-2" transform="translate(99.86 31.32)">2021</text><path class="cls-3" d="M1385.84,685.09h38v30.18H1420v-.22a15.18,15.18,0,0,0-30.36,0v.22h-3.8Z" transform="translate(-1385.84 -685.09)"/><polygon class="cls-3" points="0 37.99 0 34.08 37.95 34.08 37.95 37.99 5.79 37.99 0 42.38 0 37.99"/><path class="cls-3" d="M1403.62,704.9a10.43,10.43,0,0,1,8.46,10.23v.14h3.9v-.14a10.43,10.43,0,0,0-12.36-10.23" transform="translate(-1385.84 -685.09)"/></g></g></svg>